<?xml version="1.0" standalone="no"?>
<!DOCTYPE svg PUBLIC "-//W3C//DTD SVG 20010904//EN"
 "http://www.w3.org/TR/2001/REC-SVG-20010904/DTD/svg10.dtd">
<svg version="1.0" xmlns="http://www.w3.org/2000/svg"
 width="225.000000pt" height="225.000000pt" viewBox="0 0 225.000000 225.000000"
 preserveAspectRatio="xMidYMid meet">
<metadata>
Created by potrace 1.11, written by Peter Selinger 2001-2013
</metadata>
<g transform="translate(0.000000,225.000000) scale(0.100000,-0.100000)"
fill="#000000" stroke="none">
<path d="M778 1704 c-36 -19 -58 -63 -58 -114 l0 -40 -199 0 c-193 0 -201 -1
-226 -22 l-26 -23 3 -384 3 -383 147 295 c120 240 154 300 183 322 69 54 74
54 573 55 l462 0 0 35 c0 46 -17 80 -47 94 -15 7 -96 11 -213 11 l-188 0 -7
52 c-6 40 -15 60 -40 85 l-33 33 -153 0 c-117 -1 -161 -4 -181 -16z m312 -84
c5 -8 10 -25 10 -37 0 -23 -1 -23 -145 -23 l-145 0 0 30 c0 44 21 51 153 48
92 -2 120 -6 127 -18z"/>
<path d="M719 1323 c-59 -9 -84 -48 -255 -393 -91 -184 -168 -347 -171 -361
-4 -21 0 -30 15 -38 14 -8 212 -11 644 -11 l623 0 40 23 c38 21 50 42 212 362
183 362 196 397 147 415 -24 10 -1196 12 -1255 3z"/>
</g>
</svg>
