<?xml version="1.0" standalone="no"?>
<!DOCTYPE svg PUBLIC "-//W3C//DTD SVG 20010904//EN"
 "http://www.w3.org/TR/2001/REC-SVG-20010904/DTD/svg10.dtd">
<svg version="1.0" xmlns="http://www.w3.org/2000/svg"
 width="900.000000pt" height="900.000000pt" viewBox="0 0 900.000000 900.000000"
 preserveAspectRatio="xMidYMid meet">
<metadata>
Created by potrace 1.11, written by Peter Selinger 2001-2013
</metadata>
<g transform="translate(0.000000,900.000000) scale(0.100000,-0.100000)"
fill="#000000" stroke="none">
<path d="M4120 8498 c-1693 -158 -3122 -1390 -3524 -3038 -83 -343 -110 -578
-110 -965 0 -387 27 -622 110 -965 350 -1436 1491 -2580 2929 -2935 337 -84
603 -115 975 -115 372 0 638 31 975 115 1438 355 2579 1499 2929 2935 83 343
110 578 110 965 0 387 -27 622 -110 965 -350 1436 -1491 2580 -2929 2935 -191
48 -426 87 -615 105 -136 12 -604 11 -740 -2z m245 -2183 c188 -49 278 -175
292 -407 l6 -108 565 0 c641 0 646 -1 726 -72 60 -52 80 -112 79 -240 0 -53
-4 -101 -7 -107 -5 -8 -408 -11 -1394 -11 -1554 0 -1459 4 -1617 -74 -104 -51
-186 -121 -250 -211 -25 -35 -229 -434 -453 -887 -224 -453 -420 -844 -435
-869 l-26 -44 -1 1168 c0 1310 -7 1191 80 1270 92 83 75 81 726 78 l571 -3 6
114 c8 161 40 243 125 320 101 91 133 97 577 97 304 1 382 -2 430 -14z m2686
-1210 c24 -9 56 -28 71 -42 24 -23 28 -34 28 -85 0 -56 -11 -80 -378 -815
-208 -417 -431 -868 -496 -1001 -65 -134 -138 -270 -162 -302 -56 -76 -135
-135 -226 -168 l-73 -27 -1873 -3 c-1282 -1 -1886 1 -1913 8 -21 6 -51 21 -66
34 -25 22 -28 31 -28 88 0 63 2 67 409 893 225 457 451 915 502 1018 124 251
168 308 282 366 102 52 8 50 2013 50 1656 1 1871 -1 1910 -14z"/>
<path d="M3595 6071 c-83 -21 -105 -59 -105 -181 l0 -80 450 0 450 0 0 90 c0
102 -11 135 -54 158 -27 15 -74 17 -371 19 -187 1 -353 -2 -370 -6z"/>
</g>
</svg>
